<?xml version="1.0" encoding="iso-8859-1"?>
<!-- Generator: Adobe Illustrator 19.0.0, SVG Export Plug-In . SVG Version: 6.00 Build 0)  -->
<svg version="1.1" id="Capa_1" xmlns="http://www.w3.org/2000/svg" xmlns:xlink="http://www.w3.org/1999/xlink" x="0px" y="0px"
	 viewBox="0 0 415.999 415.999" style="enable-background:new 0 0 415.999 415.999;" xml:space="preserve">
<rect x="61.602" y="125.852" transform="matrix(-0.9185 0.3955 -0.3955 -0.9185 198.4595 303.0948)" style="fill:#74A0C3;" width="12.772" height="92.303"/>
<path style="fill:#92BEE2;" d="M111.979,274.154L111.979,274.154c-17.969,7.737-38.809-0.557-46.547-18.525l-10.176-23.631
	c-2.631-6.108,0.188-13.192,6.297-15.822l42.951-18.497c6.108-2.631,13.192,0.188,15.823,6.297l10.177,23.631
	C138.242,245.576,129.948,266.416,111.979,274.154z"/>
<path style="fill:#FACFA8;" d="M398.688,288.638c-70.806-50.563-184.531-43.403-184.531-43.403s-113.725-7.159-184.531,43.403
	c-24.048,17.173-19.163,53.549,8.549,63.81c7.411,2.744,16.346,4.939,27.117,6.232c0,0,36.367,4.604,61.416,26.529
	c8.668,7.588,18.074,14.34,28.579,19.066c14.272,6.423,34.619,12.608,58.87,11.62c24.251,0.988,44.599-5.197,58.871-11.62
	c10.506-4.727,19.91-11.479,28.579-19.066c25.048-21.926,61.416-26.529,61.416-26.529c10.771-1.293,19.706-3.488,27.117-6.232
	C417.853,342.187,422.737,305.811,398.688,288.638z"/>
<path style="fill:#E8AB79;" d="M414.019,315.168c-0.975-11.432-16.116-14.447-21.409-4.269
	c-5.427,10.438-16.694,19.968-39.451,21.639c-40.052,2.939-58.772,13.271-70.908,22.835c-10.168,8.014-21.894,13.854-34.383,17.259
	c-0.1,0.026-0.2,0.054-0.3,0.081c-21.85,5.92-44.971,5.92-66.819,0c-0.101-0.027-0.2-0.055-0.3-0.081
	c-12.49-3.405-24.215-9.245-34.383-17.259c-12.136-9.564-30.856-19.896-70.908-22.835c-22.758-1.671-34.024-11.2-39.451-21.639
	c-5.293-10.18-20.435-7.163-21.409,4.269c-1.304,15.295,7.106,31.069,23.878,37.279c7.411,2.744,16.346,4.939,27.117,6.232
	c0,0,36.487,4.618,61.539,26.637c8.609,7.567,17.988,14.247,28.439,18.952c14.273,6.425,34.627,12.615,58.887,11.627
	c24.253,0.988,44.602-5.198,58.874-11.621c10.503-4.727,19.907-11.477,28.573-19.063c25.049-21.928,61.419-26.531,61.419-26.531
	c10.771-1.293,19.706-3.488,27.117-6.232C406.911,346.237,415.321,330.463,414.019,315.168z"/>
<path style="fill:#FEAA3A;" d="M79.696,280.998c2.557-1.395,9.15-4.742,17.621-7.147c2.777-0.788,5.267,1.96,4.148,4.622
	c-1.441,3.43-3.174,7.687-4.421,11.186c-0.61,1.714,0.24,3.592,1.923,4.286c2.046,0.844,8.073,3.791,10.948,5.04
	c2.864,1.242,2.712,5.356-0.236,6.385c-4.885,1.704-14.266,2.1-19.092,3.74c-1.332,0.453-2.232,1.639-2.288,3.045
	c-0.078,1.967-0.377,5.169-1.347,9.429c-0.721,3.167-5.063,3.662-6.448,0.724c-0.902-1.913-1.909-3.973-2.954-5.973
	c-3.13-5.988-9.086-9.925-15.809-10.613c-2.966-0.304-6.313-0.529-9.643-0.517c-3.127,0.013-4.631-3.907-2.282-5.971
	c2.632-2.312,6.232-4.897,10.975-7.179c2.098-1.009,2.654-3.74,1.048-5.426c-0.689-0.723-1.474-1.531-2.341-2.4
	c-2.343-2.348-0.358-6.331,2.921-5.83c4.954,0.755,10.642,1.755,14.806,2.875C78.073,281.502,78.926,281.418,79.696,280.998z"/>
<path style="fill:#92BEE2;" d="M53.085,75.69L8.256,94.996c-5.59,2.407-7.975,9.343-5.327,15.491l11.244,26.109
	c2.647,6.148,9.325,9.182,14.914,6.774l44.83-19.306c5.59-2.407,7.975-9.343,5.327-15.491L68.001,82.464
	C65.353,76.316,58.675,73.283,53.085,75.69z M67.62,106.931c1.376,3.197,0.136,6.803-2.77,8.054l-36.129,15.559
	c-2.906,1.251-6.379-0.325-7.755-3.522l-6.414-14.893c-1.376-3.196-0.136-6.803,2.77-8.054l36.129-15.559
	c2.906-1.251,6.378,0.326,7.755,3.522L67.62,106.931z"/>
<path style="fill:#F27070;" d="M214.369,0h40.033c3.718,0,5.37,4.082,2.514,6.186c-4.094,3.017-9.078,7.369-14.432,13.539
	c-13.782,15.88-28.115,18.055-28.115,18.055V0z"/>
<path style="fill:#FACFA8;" d="M279.111,159.977h-64.954h-64.953c-16.766,0-30.355,13.59-30.355,30.355v91.713
	c0,6.116,4.957,11.074,11.073,11.074h84.235h84.236c6.115,0,11.073-4.958,11.073-11.074v-91.713
	C309.467,173.567,295.876,159.977,279.111,159.977z"/>
<g>
	<path style="fill:#E8AB79;" d="M215.341,218.686h-1.184h-1.183c-15.545,0-28.146,14.909-28.146,33.3v41.134h29.329h29.33v-41.134
		C243.487,233.595,230.885,218.686,215.341,218.686z"/>
	<path style="fill:#E8AB79;" d="M268.937,192.943h5.146c2.951,0,5.344-2.393,5.344-5.344v-5.146c0-2.951-2.393-5.344-5.344-5.344
		h-5.146c-2.951,0-5.344,2.393-5.344,5.344v5.146C263.593,190.551,265.985,192.943,268.937,192.943z"/>
	<path style="fill:#E8AB79;" d="M232.997,192.943h5.146c2.951,0,5.344-2.393,5.344-5.344v-5.146c0-2.951-2.393-5.344-5.344-5.344
		h-5.146c-2.951,0-5.344,2.393-5.344,5.344v5.146C227.653,190.551,230.046,192.943,232.997,192.943z"/>
</g>
<path style="fill:#FACFA8;" d="M260.37,81.639h-46.213h-46.212c-12.451,0-22.545,10.094-22.545,22.545v55.793h68.757h68.758v-55.793
	C282.915,91.732,272.821,81.639,260.37,81.639z"/>
<path style="fill:#E8AB79;" d="M214.157,104.931c-4.036,0-7.309,3.272-7.309,7.309v26.677h7.309h7.31V112.24
	C221.467,108.203,218.194,104.931,214.157,104.931z"/>
<path style="fill:#FACFA8;" d="M251.562,48.835c-0.108-3.811-3.241-6.82-7.054-6.82h-7.821c-3.899,0-7.06,3.161-7.06,7.06
	c0,2.893-2.345,5.237-5.238,5.237h-10.231h-10.231c-2.893,0-5.237-2.345-5.237-5.237c0-3.899-3.161-7.06-7.06-7.06h-7.821
	c-3.813,0-6.945,3.009-7.054,6.82c-0.26,9.094-1.311,24.954-5.393,32.804h42.796h42.797
	C252.872,73.789,251.821,57.929,251.562,48.835z"/>
<rect x="210.379" style="fill:#92BEE2;" width="7.971" height="54.31"/>
<g>
	<path style="fill:#E8AB79;" d="M159.379,192.943h-5.146c-2.951,0-5.344-2.393-5.344-5.344v-5.146c0-2.951,2.393-5.344,5.344-5.344
		h5.146c2.951,0,5.344,2.393,5.344,5.344v5.146C164.723,190.551,162.33,192.943,159.379,192.943z"/>
	<path style="fill:#E8AB79;" d="M195.317,192.943h-5.146c-2.951,0-5.344-2.393-5.344-5.344v-5.146c0-2.951,2.393-5.344,5.344-5.344
		h5.146c2.951,0,5.344,2.393,5.344,5.344v5.146C200.661,190.551,198.269,192.943,195.317,192.943z"/>
	<path style="fill:#E8AB79;" d="M173.812,104.931L173.812,104.931c-4.036,0-7.309,3.272-7.309,7.309v26.677h14.618V112.24
		C181.121,108.203,177.849,104.931,173.812,104.931z"/>
	<path style="fill:#E8AB79;" d="M254.503,104.931L254.503,104.931c4.037,0,7.31,3.272,7.31,7.309v26.677h-14.618V112.24
		C247.194,108.203,250.467,104.931,254.503,104.931z"/>
	<path style="fill:#E8AB79;" d="M255.622,78.493c-0.395-1.127-0.753-2.34-1.078-3.61c-2.113-8.25-2.784-19.102-2.982-26.041
		c-0.108-3.811-3.242-6.828-7.054-6.828h-5.517v22.77c0,0,0.004,0.048,0.01,0.14c0.313,5.414-4.092,9.939-9.514,9.939h-55.711
		c-0.657,2.572-1.445,4.91-2.415,6.775h42.796h19.736h23.061C256.466,80.701,256.027,79.635,255.622,78.493z"/>
	<path style="fill:#E8AB79;" d="M260.37,81.639h-2.136c4.23,3.949,9.304,11.691,9.304,26.245v32.342c0,0.047,0,0.094-0.001,0.141
		c-0.061,6.557-5.806,11.659-12.363,11.659H145.4v7.952h68.757h29.33h39.428v-7.952v-47.841
		C282.915,91.733,272.821,81.639,260.37,81.639z"/>
	<path style="fill:#E8AB79;" d="M279.111,159.977h-15.836c7.075,4.184,20.885,5.049,21.955,29.425V264.5c0,0.042,0,0.084,0,0.126
		c-0.038,6.476-5.66,11.548-12.136,11.548H118.849v5.871c0,6.116,4.957,11.074,11.073,11.074h84.235h44.697h39.539
		c6.115,0,11.073-4.958,11.073-11.074v-5.871v-85.842C309.467,173.567,295.876,159.977,279.111,159.977z"/>
</g>
<g>
</g>
<g>
</g>
<g>
</g>
<g>
</g>
<g>
</g>
<g>
</g>
<g>
</g>
<g>
</g>
<g>
</g>
<g>
</g>
<g>
</g>
<g>
</g>
<g>
</g>
<g>
</g>
<g>
</g>
</svg>
